<?xml version="1.0" encoding="UTF-8"?>
<svg xmlns="http://www.w3.org/2000/svg" width="610" height="344" viewBox="0 0 610 344">
  <defs>
    <linearGradient id="bg" x1="0" y1="0" x2="1" y2="1">
      <stop offset="0%" stop-color="#4A1A00"/>
      <stop offset="50%" stop-color="#CC5500"/>
      <stop offset="100%" stop-color="#FF8C00"/>
    </linearGradient>
    <linearGradient id="flareAccent" x1="0" y1="0" x2="1" y2="1">
      <stop offset="0%" stop-color="#FFD700"/>
      <stop offset="100%" stop-color="#FF6B2D"/>
    </linearGradient>
  </defs>
  <rect width="610" height="344" fill="url(#bg)"/>
  <circle cx="108" cy="112" r="62" fill="#8B4513" opacity="0.45"/>
  <path d="M96 61 C122 79 135 103 135 123 C135 152 114 175 86 175 C64 175 46 160 46 138 C46 116 58 98 77 84 C77 103 87 116 103 123 C95 109 92 97 96 61 Z" fill="url(#flareAccent)"/>
  <path d="M102 88 C116 99 123 113 123 126 C123 145 109 159 92 159 C78 159 66 148 66 133 C66 118 74 106 86 97 C86 110 93 119 104 124 C99 114 97 105 102 88 Z" fill="#FFF3DE" opacity="0.95"/>
  <!-- "Flare" title rendered as vector paths (Lato Light, weight 300, wide tracking) -->
  <!-- Ensures correct rendering on all systems without requiring Faktum Wide Light font -->
  <g id="title">
    <path d="M312 1330V735H957V650H312V0H209V1415H1057V1330Z" transform="translate(170.0,132.0) scale(0.036000,-0.036000)" fill="#FFFFFF"/>
    <path d="M269 1455V0H173V1455Z" transform="translate(214.6,132.0) scale(0.036000,-0.036000)" fill="#FFFFFF"/>
    <path d="M721 481Q579 476 476.5 458.5Q374 441 307.5 411.0Q241 381 209.0 339.5Q177 298 177 245Q177 195 193.5 158.5Q210 122 237.5 98.5Q265 75 301.0 64.0Q337 53 376 53Q434 53 482.5 65.5Q531 78 572.5 100.5Q614 123 650.0 154.0Q686 185 721 221ZM136 854Q214 932 300.0 972.0Q386 1012 495 1012Q575 1012 635.0 986.5Q695 961 734.5 913.5Q774 866 794.0 798.5Q814 731 814 648V0H776Q746 0 739 28L725 156Q684 116 643.5 84.0Q603 52 559.0 30.0Q515 8 464.0 -4.0Q413 -16 352 -16Q301 -16 253.0 -1.0Q205 14 167.5 45.0Q130 76 107.5 124.5Q85 173 85 241Q85 304 121.0 358.0Q157 412 234.0 452.0Q311 492 431.5 516.0Q552 540 721 544V648Q721 786 661.5 860.5Q602 935 485 935Q413 935 362.5 915.0Q312 895 277.0 871.0Q242 847 220.0 827.0Q198 807 183 807Q172 807 165.0 812.0Q158 817 153 825Z" transform="translate(234.6,132.0) scale(0.036000,-0.036000)" fill="#FFFFFF"/>
    <path d="M255 755Q278 816 307.5 863.5Q337 911 375.5 944.0Q414 977 461.5 994.5Q509 1012 567 1012Q598 1012 628.0 1006.5Q658 1001 681 987L673 921Q668 905 654 905Q642 905 617.5 912.0Q593 919 553 919Q495 919 450.5 901.5Q406 884 370.5 849.0Q335 814 308.5 762.5Q282 711 260 644V0H164V995H215Q232 995 239.0 988.0Q246 981 248 964Z" transform="translate(273.4,132.0) scale(0.036000,-0.036000)" fill="#FFFFFF"/>
    <path d="M862 598Q862 678 839.5 741.5Q817 805 776.0 849.0Q735 893 678.5 916.5Q622 940 554 940Q477 940 416.0 916.0Q355 892 310.5 847.0Q266 802 239.0 739.0Q212 676 203 598ZM198 537V518Q198 406 224.0 321.0Q250 236 298.0 178.5Q346 121 414.0 92.0Q482 63 566 63Q641 63 696.0 79.5Q751 96 788.5 116.5Q826 137 848.0 153.5Q870 170 880 170Q893 170 900 160L926 128Q902 98 862.5 72.0Q823 46 774.5 27.5Q726 9 670.5 -2.0Q615 -13 559 -13Q457 -13 373.0 22.5Q289 58 229.0 126.0Q169 194 136.5 292.5Q104 391 104 518Q104 625 134.5 715.5Q165 806 222.5 871.5Q280 937 363.5 974.0Q447 1011 553 1011Q637 1011 709.0 982.0Q781 953 834.0 897.5Q887 842 917.5 761.0Q948 680 948 575Q948 553 942.0 545.0Q936 537 922 537Z" transform="translate(302.9,132.0) scale(0.036000,-0.036000)" fill="#FFFFFF"/>
  </g>
  <text x="173" y="170" fill="#FFF5E0" font-family="Arial, Helvetica, sans-serif" font-size="22" font-weight="600">A familiar animation suite</text>
  <rect x="0" y="314" width="610" height="30" fill="#3A1500"/>
  <text x="26" y="334" fill="#FFD0A0" font-family="Arial, Helvetica, sans-serif" font-size="14">Flare Animation Studio</text>
  <text x="584" y="334" text-anchor="end" fill="#FFE8CC" font-family="Arial, Helvetica, sans-serif" font-size="13">flare-animate.github.io/website</text>
</svg>
