<?xml version="1.0" standalone="no"?>
<!DOCTYPE svg PUBLIC "-//W3C//DTD SVG 20010904//EN"
 "http://www.w3.org/TR/2001/REC-SVG-20010904/DTD/svg10.dtd">
<svg version="1.0" xmlns="http://www.w3.org/2000/svg"
 width="1024.000000pt" height="1024.000000pt" viewBox="0 0 1024.000000 1024.000000"
 preserveAspectRatio="xMidYMid meet">

<g transform="translate(0.000000,1024.000000) scale(0.100000,-0.100000)"
fill="#000000" stroke="none">
<path d="M0 5120 l0 -5120 5120 0 5120 0 0 5120 0 5120 -5120 0 -5120 0 0
-5120z m8221 2558 c50 -14 114 -69 139 -119 19 -37 20 -63 20 -1016 0 -931 -1
-980 -19 -1018 -23 -49 -63 -88 -116 -112 -36 -16 -86 -18 -541 -23 l-501 -5
-169 -162 c-93 -89 -223 -216 -289 -283 -183 -186 -215 -205 -272 -156 l-28
24 -5 266 c-5 260 -6 266 -28 288 -21 22 -32 23 -215 29 -211 6 -240 13 -296
70 -71 71 -66 -12 -69 1062 -2 671 1 981 8 1009 15 53 81 123 133 142 36 12
196 15 1126 15 795 1 1094 -2 1122 -11z m-4625 -114 c22 -10 43 -32 54 -55 19
-35 20 -61 20 -354 l0 -315 -145 0 -145 0 0 309 c0 195 4 320 11 338 13 34 47
72 74 83 33 14 95 11 131 -6z m804 -2 c19 -9 43 -33 55 -52 19 -33 20 -54 23
-352 l3 -318 -148 0 -148 0 3 322 c2 285 5 326 20 353 21 36 75 65 122 65 19
0 51 -8 70 -18z m795 2 c69 -33 69 -33 75 -397 l5 -327 -147 0 -148 0 0 313
c0 277 2 316 18 347 36 72 122 100 197 64z m378 -983 l47 -25 0 -460 c0 -269
4 -488 11 -526 27 -171 146 -310 312 -364 17 -5 17 -41 15 -683 l-3 -678 -30
-55 c-36 -65 -100 -113 -175 -129 -71 -15 -2499 -15 -2570 0 -73 16 -137 63
-174 129 l-31 55 0 1290 c0 1239 1 1291 19 1325 36 68 97 120 166 141 14 4
552 7 1195 6 l1170 -2 48 -24z m-2823 -517 l0 -145 -307 3 c-336 3 -345 5
-392 64 -32 41 -30 132 5 173 14 17 40 35 57 40 18 5 168 10 335 10 l302 1 0
-146z m0 -799 l0 -145 -300 0 c-330 0 -345 2 -393 59 -36 43 -39 133 -5 176
41 52 58 54 391 55 l307 0 0 -145z m0 -801 l0 -145 -307 3 c-303 3 -309 3
-346 26 -46 29 -67 68 -67 124 0 54 27 99 71 121 29 14 75 17 342 17 l307 0 0
-146z m4079 128 c98 -49 105 -169 15 -238 l-37 -29 -314 -3 -313 -3 0 145 0
146 308 0 c272 0 311 -2 341 -18z m-3159 -1479 c0 -288 -1 -310 -20 -340 -25
-42 -74 -66 -129 -65 -47 0 -81 20 -115 66 -20 26 -21 42 -24 337 l-3 309 146
0 145 0 0 -307z m808 5 c-3 -284 -4 -305 -23 -338 -56 -94 -194 -96 -248 -2
-17 29 -19 59 -20 337 l-2 305 148 0 148 0 -3 -302z m792 -10 c-6 -347 -6
-350 -74 -385 -67 -35 -141 -15 -190 51 -20 26 -21 42 -24 337 l-3 309 148 0
148 0 -5 -312z"/>
<path d="M6395 7261 c-52 -32 -68 -58 -73 -116 -4 -43 0 -61 18 -90 45 -74 4
-70 785 -73 l700 -2 44 22 c104 54 109 197 9 258 -32 19 -52 20 -743 20 -674
0 -712 -1 -740 -19z"/>
<path d="M6393 6754 c-95 -47 -99 -194 -7 -255 28 -18 60 -19 744 -19 696 0
716 1 748 20 52 32 74 76 69 138 -3 46 -9 59 -41 90 l-36 37 -723 2 c-647 3
-725 1 -754 -13z"/>
<path d="M6391 6194 c-96 -92 -121 -122 -121 -143 0 -39 224 -261 263 -261 43
0 67 32 67 90 0 33 4 50 13 50 28 -1 99 -41 142 -81 63 -58 93 -113 110 -200
16 -85 37 -109 94 -109 42 0 75 28 86 70 3 14 -1 58 -9 98 -39 186 -186 342
-371 393 l-60 16 -5 80 c-6 89 -18 113 -60 113 -21 0 -54 -26 -149 -116z"/>
<path d="M6994 6241 c-36 -22 -64 -75 -64 -122 0 -46 42 -113 85 -133 31 -15
78 -17 437 -14 399 3 403 3 434 25 84 60 85 192 1 243 -30 19 -53 20 -447 20
-388 0 -417 -1 -446 -19z"/>
<path d="M3610 6109 c-55 -25 -105 -71 -133 -124 -22 -40 -22 -42 -25 -833 -1
-512 1 -806 8 -831 15 -58 64 -123 117 -156 l48 -30 827 -3 c901 -3 856 -5
933 53 19 15 48 54 65 88 l30 60 0 795 c0 595 -3 805 -12 836 -16 55 -99 138
-154 154 -31 9 -244 12 -850 12 -792 0 -810 -1 -854 -21z"/>
</g>
</svg>
